# xmcd
#
# Track frame offsets:
#	150
#	13090
#	29907
#	46895
#	67010
#	81337
#	102212
#	116415
#	131625
#	143217
#	163255
#	177310
#	194495
#	213975
#
# Disc length: 3068
#
# Revision: 1
# Processed by: cddbd v1.5.1PL0 Copyright (c) Steve Scherf et al.
# Submitted via: VisiTrax 2.9.3.171 - For more info visit www.synapsa.com
# Normalized: r0:DSETVAR1
#
DISCID=d20bfa0e
DTITLE=Various Artist - Mr Music Country 3-01
DYEAR=1900
DGENRE=
TTITLE0=Dwight Yoakam - What Do You Know About Love
TTITLE1=Ed Burleson - No Tears
TTITLE2=Kimberly Fox - It's Dawning On Me
TTITLE3=Kris Kristofferson - To Beat The Devil
TTITLE4=Jolie Holliday - Big Bad Broken Heart
TTITLE5=Clay Blaker - This House Has No Doors
TTITLE6=Joe Paul Nichols - Fraulein
TTITLE7=Ben Rose - Long Black Limousine
TTITLE8=Benny Berry With Marsha Britton - You Make The hard Times Easier For Me
TTITLE9=Robert James Waller - Wabash Cannonball/Rollin' Out Of Roanoke
TTITLE10=Jacob Lyda - When We Make Love
TTITLE11=Western Satellites - Lost Lovin' Fool
TTITLE12=Emmylou Harris - Colors Of Your Heart
TTITLE13=Doug Sahm - I Can't Go Back To Austin
EXTD=
EXTT0=
EXTT1=
EXTT2=
EXTT3=
EXTT4=
EXTT5=
EXTT6=
EXTT7=
EXTT8=
EXTT9=
EXTT10=
EXTT11=
EXTT12=
EXTT13=
PLAYORDER=
